<svg width="46" height="46" viewBox="0 0 46 46" fill="none" xmlns="http://www.w3.org/2000/svg">
<path d="M34.4997 19.1666H24.9163M42.1663 22.6128C42.1663 17.5681 42.1663 15.0438 40.6905 13.4051C40.5551 13.2539 40.4118 13.1099 40.2612 12.9738C38.6224 11.4999 36.0982 11.4999 31.0535 11.4999H30.3367C28.1268 11.4999 27.0208 11.4999 25.9897 11.2067C25.4238 11.0449 24.8784 10.8185 24.3643 10.532C23.429 10.0126 22.647 9.22867 21.083 7.66659L20.0288 6.61242C19.5037 6.08725 19.243 5.82659 18.967 5.59659C17.7799 4.61264 16.3238 4.00948 14.7887 3.86584C14.4322 3.83325 14.0603 3.83325 13.3205 3.83325C11.6281 3.83325 10.7828 3.83325 10.0775 3.96742C8.56303 4.25343 7.16992 4.98926 6.07993 6.07892C4.98993 7.16857 4.25366 8.56145 3.96717 10.0758C3.83301 10.7831 3.83301 11.6303 3.83301 13.3208M42.1491 30.6666C42.0801 35.4199 41.7274 38.1128 39.92 39.9202C37.6756 42.1666 34.0608 42.1666 26.833 42.1666H19.1663C11.9386 42.1666 8.32376 42.1666 6.07934 39.9202C3.83492 37.6739 3.83301 34.061 3.83301 26.8333V21.0833" stroke="#E6D1A4" stroke-width="2.5" stroke-linecap="round"/>
</svg>
