<svg width="52" height="52" viewBox="0 0 52 52" fill="none" xmlns="http://www.w3.org/2000/svg">
<circle cx="26" cy="26" r="26" fill="white"/>
<g clip-path="url(#clip0_179_127)">
<path d="M18.0455 36.8868V25.0996L14.3309 21.7553L11 19.8994V34.8066C11 35.9576 11.9476 36.8868 13.1137 36.8868H18.0455Z" fill="#4285F4"/>
<path d="M34.9546 36.8869H39.8864C41.056 36.8869 42.0001 35.9543 42.0001 34.8068V19.8997L38.2273 22.0253L34.9546 25.0997V36.8869Z" fill="#34A853"/>
<path d="M18.0455 25.0996L17.54 20.494L18.0455 16.0859L26.5 22.3262L34.9545 16.0859L35.5199 20.256L34.9545 25.0996L26.5 31.3398L18.0455 25.0996Z" fill="#EA4335"/>
<path d="M34.9546 16.0859V25.0995L42.0001 19.8994V17.1259C42.0001 14.5536 39.0163 13.0872 36.9275 14.6299L34.9546 16.0859Z" fill="#FBBC04"/>
<path d="M11 19.8995L14.2403 22.2912L18.0455 25.0996V16.086L16.0726 14.63C13.9801 13.0872 11 14.5537 11 17.1259V19.8995Z" fill="#C5221F"/>
</g>
<defs>
<clipPath id="clip0_179_127">
<rect width="31" height="23" fill="white" transform="translate(11 14)"/>
</clipPath>
</defs>
</svg>
