<svg width="44" height="38" viewBox="0 0 44 38" fill="none" xmlns="http://www.w3.org/2000/svg">
<path d="M22.4422 0.306864C22.1872 0.107999 21.873 0 21.5496 0C21.2261 0 20.912 0.107999 20.6569 0.306864L0 16.4141L1.78681 18.6738L4.3125 16.7044V34.4992C4.31402 35.2613 4.61741 35.9917 5.15625 36.5305C5.69508 37.0693 6.42547 37.3727 7.1875 37.3742H35.9375C36.6995 37.3727 37.4299 37.0693 37.9688 36.5305C38.5076 35.9917 38.811 35.2613 38.8125 34.4992V16.7174L41.3382 18.6867L43.125 16.427L22.4422 0.306864ZM24.4375 34.4992H18.6875V22.9992H24.4375V34.4992ZM27.3125 34.4992V22.9992C27.3125 22.2367 27.0096 21.5055 26.4704 20.9663C25.9313 20.4271 25.2 20.1242 24.4375 20.1242H18.6875C17.925 20.1242 17.1937 20.4271 16.6546 20.9663C16.1154 21.5055 15.8125 22.2367 15.8125 22.9992V34.4992H7.1875V14.4634L21.5625 3.26524L35.9375 14.4777V34.4992H27.3125Z" fill="#E6D1A4"/>
</svg>
