<svg width="22" height="22" viewBox="0 0 22 22" fill="none" xmlns="http://www.w3.org/2000/svg">
<path d="M0.237895 0.237889C0.100495 0.375328 0.0169088 0.557464 0.00229998 0.751255C-0.0123089 0.945046 0.0430274 1.13765 0.15827 1.29414L0.237895 1.38676L4.60915 5.75801C2.47844 7.25158 0.95718 9.46281 0.32402 11.9866C0.277428 12.1937 0.3137 12.4108 0.425079 12.5914C0.536458 12.7721 0.714102 12.902 0.920021 12.9533C1.12594 13.0047 1.34379 12.9735 1.52697 12.8663C1.71016 12.7592 1.84414 12.5846 1.90027 12.3799C2.46214 10.1397 3.84624 8.19295 5.77752 6.92639L7.7389 8.88776C6.95211 9.70564 6.51753 10.7995 6.52852 11.9343C6.53951 13.0691 6.9952 14.1544 7.79768 14.9569C8.60016 15.7593 9.68539 16.215 10.8202 16.226C11.955 16.237 13.0489 15.8024 13.8668 15.0156L20.279 21.4279C20.424 21.5723 20.6181 21.6567 20.8226 21.6641C21.0271 21.6716 21.2269 21.6017 21.3821 21.4683C21.5372 21.3349 21.6363 21.1478 21.6596 20.9445C21.6829 20.7412 21.6285 20.5366 21.5075 20.3716L21.4279 20.279L14.806 13.6555V13.6539L13.506 12.3555L10.3974 9.24689L7.27902 6.12851L6.05215 4.90164L1.38677 0.237889C1.2344 0.0855689 1.02778 0 0.812333 0C0.596887 0 0.390262 0.0855689 0.237895 0.237889ZM8.88777 10.0366L12.7163 13.8668C12.2049 14.3576 11.5215 14.6285 10.8127 14.6212C10.1039 14.614 9.42618 14.3292 8.92496 13.828C8.42373 13.3267 8.13894 12.649 8.13169 11.9402C8.12443 11.2314 8.39691 10.548 8.88777 10.0366ZM10.8329 3.79176C9.74902 3.79176 8.69765 3.95101 7.70315 4.25164L9.04377 5.59064C9.62444 5.47581 10.2208 5.41785 10.8329 5.41676C12.8855 5.41712 14.8791 6.10285 16.4977 7.36517C18.1162 8.62748 19.2669 10.3941 19.7671 12.3848C19.8233 12.5894 19.9573 12.764 20.1404 12.8712C20.3236 12.9784 20.5415 13.0096 20.7474 12.9582C20.9533 12.9068 21.131 12.7769 21.2423 12.5963C21.3537 12.4156 21.39 12.1986 21.3434 11.9915C20.7554 9.64915 19.4019 7.57025 17.4978 6.08475C15.5937 4.59924 13.2479 3.79223 10.8329 3.79176ZM11.0441 7.59426L15.1619 11.7104C15.1084 10.6356 14.6574 9.61901 13.8965 8.85807C13.1355 8.09712 12.119 7.64775 11.0441 7.59426Z" fill="white"/>
</svg>
