<svg width="46" height="46" viewBox="0 0 46 46" fill="none" xmlns="http://www.w3.org/2000/svg">
<path d="M38.1166 24.0179L40.7156 26.3322C41.1956 26.7327 41.5163 27.2919 41.6196 27.9083C41.723 28.5248 41.6022 29.158 41.2791 29.6931L38.1454 35.0464C37.9023 35.4561 37.5551 35.7944 37.1391 36.0267C36.7183 36.2596 36.2458 36.3831 35.7649 36.3861C35.4665 36.3879 35.1697 36.3433 34.8851 36.2539L31.5588 35.1556C30.9761 35.5294 30.3704 35.8638 29.7418 36.159L29.0431 39.5314C28.9139 40.1517 28.5684 40.706 28.0685 41.0954C27.5622 41.4917 26.9346 41.7009 26.2918 41.6876H19.8029C19.1601 41.7009 18.5324 41.4917 18.0261 41.0954C17.5273 40.7055 17.1829 40.1513 17.0544 39.5314L16.3529 36.159C15.7325 35.8599 15.1305 35.5238 14.5503 35.1527L11.2124 36.2539C10.9278 36.3433 10.631 36.3879 10.3326 36.3861C9.85267 36.3827 9.38121 36.2591 8.96125 36.0267C8.54564 35.7952 8.19853 35.458 7.955 35.0492L4.70913 29.6931C4.37168 29.1531 4.24275 28.5086 4.34648 27.8804C4.45022 27.2522 4.77951 26.6833 5.27263 26.2805L7.86875 23.0001V21.9824L5.26975 19.668C4.78981 19.2675 4.46913 18.7084 4.36576 18.0919C4.2624 17.4754 4.38318 16.8423 4.70625 16.3071L7.95213 10.9539C8.19525 10.5441 8.5424 10.2059 8.95838 9.97348C9.37834 9.7411 9.8498 9.61755 10.3298 9.61411C10.6254 9.59546 10.9222 9.62261 11.2095 9.69461L14.4813 10.8446C15.0658 10.4709 15.6715 10.1364 16.2983 9.84123L16.9998 6.46886C17.1283 5.84892 17.4726 5.2947 17.9715 4.90486C18.4778 4.50853 19.1054 4.29931 19.7483 4.31261H26.1825C26.8253 4.29931 27.453 4.50853 27.9593 4.90486C28.4624 5.29873 28.8074 5.85361 28.931 6.46886L29.6325 9.84123C30.2554 10.1383 30.8563 10.4737 31.4351 10.8475L34.7759 9.74923C35.1467 9.62862 35.5384 9.58627 35.9264 9.62487C36.3144 9.66347 36.6901 9.78218 37.0299 9.97348C37.4468 10.2092 37.7918 10.5485 38.0361 10.951L41.2791 16.3071C41.6211 16.8425 41.7566 17.484 41.6603 18.112C41.564 18.7399 41.2426 19.3114 40.7559 19.7197L38.1166 21.968V24.0179Z" stroke="#E6D1A4" stroke-width="2.5"/>
<path d="M30.1875 23C30.1875 24.9062 29.4302 26.7344 28.0823 28.0823C26.7344 29.4302 24.9062 30.1875 23 30.1875C21.0938 30.1875 19.2656 29.4302 17.9177 28.0823C16.5698 26.7344 15.8125 24.9062 15.8125 23C15.8125 21.0938 16.5698 19.2656 17.9177 17.9177C19.2656 16.5698 21.0938 15.8125 23 15.8125C24.9062 15.8125 26.7344 16.5698 28.0823 17.9177C29.4302 19.2656 30.1875 21.0938 30.1875 23Z" stroke="#E6D1A4" stroke-width="2"/>
</svg>
