<svg width="52" height="52" viewBox="0 0 52 52" fill="none" xmlns="http://www.w3.org/2000/svg">
<g clip-path="url(#clip0_179_124)">
<path d="M26 0C19.1059 0 12.4881 2.74097 7.61719 7.61516C2.74126 12.4913 0.00139526 19.1042 0 26C0 32.8928 2.74219 39.5107 7.61719 44.3848C12.4881 49.259 19.1059 52 26 52C32.8941 52 39.5119 49.259 44.3828 44.3848C49.2578 39.5107 52 32.8928 52 26C52 19.1072 49.2578 12.4893 44.3828 7.61516C39.5119 2.74097 32.8941 0 26 0Z" fill="url(#paint0_linear_179_124)"/>
<path d="M11.7688 25.7253C19.3495 22.4233 24.4032 20.2464 26.9301 19.1945C34.1532 16.1911 35.6523 15.6694 36.6313 15.6518C36.8466 15.6483 37.326 15.7015 37.6388 15.9544C37.8988 16.1677 37.972 16.4561 38.0085 16.6587C38.041 16.861 38.0857 17.3221 38.0491 17.682C37.6591 21.7933 35.9651 31.7699 35.1038 36.3748C34.7423 38.3232 34.0232 38.9764 33.3285 39.0402C31.8173 39.1791 30.6716 38.0424 29.2091 37.0841C26.922 35.5838 25.6301 34.6502 23.4079 33.1865C20.8404 31.4949 22.506 30.565 23.9685 29.0456C24.3504 28.6479 31.0048 22.5968 31.1307 22.048C31.147 21.9793 31.1632 21.7234 31.0088 21.5885C30.8585 21.4532 30.6351 21.4995 30.4726 21.5361C30.241 21.5881 26.5888 24.0045 19.5038 28.7848C18.4679 29.4974 17.5295 29.8447 16.6845 29.8264C15.7582 29.8065 13.9707 29.3016 12.6423 28.8701C11.0173 28.3408 9.72133 28.0609 9.83508 27.1618C9.89196 26.6938 10.5379 26.2149 11.7688 25.7253Z" fill="white"/>
</g>
<defs>
<linearGradient id="paint0_linear_179_124" x1="2600" y1="0" x2="2600" y2="5200" gradientUnits="userSpaceOnUse">
<stop stop-color="#2AABEE"/>
<stop offset="1" stop-color="#229ED9"/>
</linearGradient>
<clipPath id="clip0_179_124">
<rect width="52" height="52" fill="white"/>
</clipPath>
</defs>
</svg>
