<svg width="60" height="60" viewBox="0 0 60 60" fill="none" xmlns="http://www.w3.org/2000/svg">
<circle cx="30" cy="30" r="30" fill="#E6D1A4"/>
<path d="M30 15C31.4127 15 32.7937 15.4252 33.9684 16.2218C35.143 17.0185 36.0585 18.1508 36.5991 19.4755C37.1398 20.8003 37.2812 22.258 37.0056 23.6644C36.73 25.0708 36.0497 26.3626 35.0508 27.3765C34.0518 28.3905 32.7791 29.081 31.3935 29.3607C30.0079 29.6404 28.5717 29.4969 27.2665 28.9481C25.9614 28.3994 24.8458 27.4701 24.0609 26.2779C23.2761 25.0856 22.8571 23.6839 22.8571 22.25L22.8643 21.9354C22.9442 20.0688 23.7309 18.3057 25.0603 17.0136C26.3898 15.7214 28.1593 15.0001 30 15ZM32.8571 32.4C34.7515 32.4 36.5684 33.1638 37.9079 34.5235C39.2475 35.8831 40 37.7272 40 39.65V41.1C40 41.8691 39.699 42.6068 39.1632 43.1506C38.6273 43.6945 37.9006 44 37.1429 44H22.8571C22.0994 44 21.3727 43.6945 20.8368 43.1506C20.301 42.6068 20 41.8691 20 41.1V39.65C20 37.7272 20.7525 35.8831 22.0921 34.5235C23.4316 33.1638 25.2485 32.4 27.1429 32.4H32.8571Z" fill="#480902"/>
</svg>
