<svg width="52" height="52" viewBox="0 0 52 52" fill="none" xmlns="http://www.w3.org/2000/svg">
<circle cx="26" cy="26" r="26" fill="white"/>
<path d="M30.7777 14.625H27.5277C24.2777 14.625 20.9708 17.0625 20.9708 22.4412C20.9029 23.688 21.1811 24.9292 21.7748 26.0276C22.3684 27.126 23.2544 28.0388 24.3346 28.665L20.3127 35.8556C20.2205 36.0119 20.1719 36.1901 20.1719 36.3716C20.1719 36.553 20.2205 36.7312 20.3127 36.8875C20.3961 37.0306 20.5143 37.1504 20.6563 37.2356C20.7984 37.3208 20.9597 37.3688 21.1252 37.375H23.1483C23.3536 37.385 23.557 37.332 23.7313 37.223C23.9055 37.1141 24.0423 36.9545 24.1233 36.7656L27.8527 29.4531H28.1289V36.4569C28.1299 36.582 28.1561 36.7057 28.2062 36.8204C28.2563 36.9352 28.329 37.0386 28.4202 37.1244C28.5113 37.2102 28.6189 37.2766 28.7364 37.3197C28.8539 37.3628 28.9789 37.3816 29.1039 37.375H30.8752C31.1139 37.3839 31.3465 37.2985 31.5228 37.1374C31.6991 36.9763 31.8051 36.7523 31.8177 36.5138V15.6163C31.8209 15.4893 31.7991 15.3629 31.7535 15.2443C31.7079 15.1258 31.6393 15.0174 31.5518 14.9253C31.4643 14.8333 31.3595 14.7594 31.2434 14.7078C31.1273 14.6563 31.0022 14.6282 30.8752 14.625H30.7777ZM28.1939 26.2275H27.7146C25.8458 26.2275 24.7408 24.7081 24.7408 22.165C24.7408 18.9962 26.1464 17.8669 27.4546 17.8669H28.2183L28.1939 26.2275Z" fill="#D61E3B"/>
</svg>
