<svg width="46" height="46" viewBox="0 0 46 46" fill="none" xmlns="http://www.w3.org/2000/svg">
<path d="M36.4167 22.9999V15.3332C36.4167 9.91288 36.4167 7.2008 34.7319 5.51797C33.0491 3.8313 30.337 3.8313 24.9167 3.8313H17.25C11.8297 3.8313 9.11758 3.8313 7.43475 5.51797C5.75 7.2008 5.75 9.91288 5.75 15.3313V30.6646C5.75 36.0888 5.75 38.799 7.43475 40.4818C9.11758 42.1665 11.8297 42.1665 17.25 42.1665H21.0833" stroke="#E6D1A4" stroke-width="2" stroke-linecap="round" stroke-linejoin="round"/>
<path d="M13.417 28.7499H21.0837M13.417 21.0833H28.7503M27.792 3.83325H14.3753C14.3753 6.54342 14.3753 7.8985 15.2187 8.73992C16.0582 9.58325 17.4132 9.58325 20.1253 9.58325H22.042C24.7522 9.58325 26.1072 9.58325 26.9487 8.73992C27.792 7.8985 27.792 6.54342 27.792 3.83325ZM30.1629 41.5015L26.8337 42.1666L27.4987 38.8373C27.6329 38.1608 27.9664 37.5417 28.4552 37.0548L36.2464 29.2617C36.4084 29.0994 36.6008 28.9707 36.8126 28.8828C37.0244 28.795 37.2515 28.7498 37.4807 28.7498C37.71 28.7498 37.9371 28.795 38.1489 28.8828C38.3607 28.9707 38.5531 29.0994 38.7151 29.2617L39.7386 30.2852C39.9008 30.4472 40.0296 30.6396 40.1174 30.8514C40.2052 31.0632 40.2505 31.2902 40.2505 31.5195C40.2505 31.7488 40.2052 31.9758 40.1174 32.1876C40.0296 32.3994 39.9008 32.5918 39.7386 32.7538L31.9473 40.5451C31.4616 41.0352 30.84 41.3683 30.1629 41.5015Z" stroke="#E6D1A4" stroke-width="1.5" stroke-linecap="round" stroke-linejoin="round"/>
</svg>
